<?xml version="1.0" encoding="UTF-8"?>
<!DOCTYPE svg PUBLIC "-//W3C//DTD SVG 1.1//EN" "http://www.w3.org/Graphics/SVG/1.1/DTD/svg11.dtd">
<!-- Creator: CorelDRAW (Versão OEM) -->
<svg xmlns="http://www.w3.org/2000/svg" xml:space="preserve" width="193.876mm" height="179.156mm" version="1.1" style="shape-rendering:geometricPrecision; text-rendering:geometricPrecision; image-rendering:optimizeQuality; fill-rule:evenodd; clip-rule:evenodd"
viewBox="0 0 19091.96 17642.44"
 xmlns:xlink="http://www.w3.org/1999/xlink"
 xmlns:xodm="http://www.corel.com/coreldraw/odm/2003">
 <defs>
  <style type="text/css">
   <![CDATA[
    .str0 {stroke:#E6E7E8;stroke-width:7.5;stroke-miterlimit:22.9256}
    .fil1 {fill:#373435}
    .fil0 {fill:#373435;fill-rule:nonzero}
    .fil4 {fill:url(#id0)}
    .fil13 {fill:url(#id1)}
    .fil18 {fill:url(#id2)}
    .fil16 {fill:url(#id3)}
    .fil9 {fill:url(#id4)}
    .fil7 {fill:url(#id5)}
    .fil3 {fill:url(#id6)}
    .fil14 {fill:url(#id7)}
    .fil5 {fill:url(#id8)}
    .fil15 {fill:url(#id9)}
    .fil6 {fill:url(#id10)}
    .fil17 {fill:url(#id11)}
    .fil10 {fill:url(#id12)}
    .fil12 {fill:url(#id13)}
    .fil11 {fill:url(#id14)}
    .fil2 {fill:url(#id15)}
    .fil19 {fill:url(#id16)}
    .fil8 {fill:url(#id17)}
   ]]>
  </style>
  <linearGradient id="id0" gradientUnits="userSpaceOnUse" x1="5911.31" y1="11164.54" x2="7707.84" y2="12334.13">
   <stop offset="0" style="stop-opacity:1; stop-color:#373435"/>
   <stop offset="0.172549" style="stop-opacity:1; stop-color:#8E8D8E"/>
   <stop offset="0.521569" style="stop-opacity:1; stop-color:#E6E7E8"/>
   <stop offset="1" style="stop-opacity:1; stop-color:#665A5A"/>
  </linearGradient>
  <linearGradient id="id1" gradientUnits="userSpaceOnUse" xlink:href="#id0" x1="13462.26" y1="11164.54" x2="11665.73" y2="12334.13">
  </linearGradient>
  <linearGradient id="id2" gradientUnits="userSpaceOnUse" x1="10821.31" y1="11462.94" x2="10444.7" y2="10736">
   <stop offset="0" style="stop-opacity:1; stop-color:#373435"/>
   <stop offset="0.156863" style="stop-opacity:1; stop-color:#9A9999"/>
   <stop offset="0.470588" style="stop-opacity:1; stop-color:#FEFEFE"/>
   <stop offset="1" style="stop-opacity:1; stop-color:#665A5A"/>
  </linearGradient>
  <linearGradient id="id3" gradientUnits="userSpaceOnUse" xlink:href="#id0" x1="11638.7" y1="8479.07" x2="9878.38" y2="9702.49">
  </linearGradient>
  <linearGradient id="id4" gradientUnits="userSpaceOnUse" xlink:href="#id2" x1="8552.27" y1="11462.94" x2="8928.88" y2="10736">
  </linearGradient>
  <linearGradient id="id5" gradientUnits="userSpaceOnUse" xlink:href="#id0" x1="7734.88" y1="8479.07" x2="9495.2" y2="9702.49">
  </linearGradient>
  <linearGradient id="id6" gradientUnits="userSpaceOnUse" x1="5801.26" y1="10859.04" x2="7913.63" y2="12277.45">
   <stop offset="0" style="stop-opacity:1; stop-color:#373435"/>
   <stop offset="0.172549" style="stop-opacity:1; stop-color:#9A9999"/>
   <stop offset="0.521569" style="stop-opacity:1; stop-color:#FEFEFE"/>
   <stop offset="1" style="stop-opacity:1; stop-color:#665A5A"/>
  </linearGradient>
  <linearGradient id="id7" gradientUnits="userSpaceOnUse" xlink:href="#id6" x1="12307.02" y1="9089.68" x2="10263.19" y2="10466.11">
  </linearGradient>
  <linearGradient id="id8" gradientUnits="userSpaceOnUse" xlink:href="#id6" x1="7066.55" y1="9089.68" x2="9110.38" y2="10466.11">
  </linearGradient>
  <linearGradient id="id9" gradientUnits="userSpaceOnUse" xlink:href="#id6" x1="11963.15" y1="8492.23" x2="9853.34" y2="9914.46">
  </linearGradient>
  <linearGradient id="id10" gradientUnits="userSpaceOnUse" xlink:href="#id6" x1="7410.43" y1="8492.23" x2="9520.24" y2="9914.46">
  </linearGradient>
  <linearGradient id="id11" gradientUnits="userSpaceOnUse" xlink:href="#id2" x1="10931.53" y1="11168.71" x2="10732.59" y2="10841.39">
  </linearGradient>
  <linearGradient id="id12" gradientUnits="userSpaceOnUse" xlink:href="#id2" x1="11888.24" y1="13390.49" x2="12050.28" y2="13165.77">
  </linearGradient>
  <linearGradient id="id13" gradientUnits="userSpaceOnUse" xlink:href="#id6" x1="13572.32" y1="10859.04" x2="11459.94" y2="12277.45">
  </linearGradient>
  <linearGradient id="id14" gradientUnits="userSpaceOnUse" xlink:href="#id6" x1="13148.48" y1="10315.39" x2="11103.39" y2="11689.94">
  </linearGradient>
  <linearGradient id="id15" gradientUnits="userSpaceOnUse" xlink:href="#id6" x1="6225.1" y1="10315.39" x2="8270.19" y2="11689.94">
  </linearGradient>
  <linearGradient id="id16" gradientUnits="userSpaceOnUse" xlink:href="#id2" x1="7485.34" y1="13390.49" x2="7323.29" y2="13165.77">
  </linearGradient>
  <linearGradient id="id17" gradientUnits="userSpaceOnUse" xlink:href="#id2" x1="8442.05" y1="11168.71" x2="8640.99" y2="10841.39">
  </linearGradient>
 </defs>
 <g id="Camada_x0020_1">
  <metadata id="CorelCorpID_0Corel-Layer"/>
  <g id="_2250358492704">
   <path class="fil0" d="M5537.84 7035.21c-62.17,213.06 -113.85,428.31 -153.67,642.57 -23.41,125.91 -42.91,252.22 -58.24,378.31 584.56,-383.91 1215.58,-690.57 1881.4,-907.04 742.29,-241.35 1527.25,-370.89 2338.64,-370.89 1115.98,0 2181.53,245.03 3154.65,688.97 1009.15,460.4 1917.38,1134.46 2677.87,1970.69 670.31,737.07 1226.46,1599.83 1636.87,2553.54 370.98,862.09 623.09,1799.84 733.01,2787.56 35.06,-13.91 70.9,-26.22 107.46,-36.86 108.63,-31.58 222.28,-48.53 338.5,-48.53 98.1,0 194.73,12.16 288.37,35.09 11.36,2.78 22.66,5.72 33.9,8.82 -115.23,-1073.09 -387.19,-2093.74 -790.13,-3033.48 -445.24,-1038.43 -1050.62,-1978.56 -1781.21,-2781.91 -834.04,-917.12 -1830.55,-1655.79 -2938.11,-2159.52 -1065.51,-484.61 -2234.49,-752.04 -3461.17,-752.04 -721.02,0 -1420.95,91.97 -2090.57,265.72 -670.66,174.03 -1312.97,430.45 -1917.57,759z"/>
   <path class="fil0" d="M3917.57 8525.02c8.65,-130.03 20.55,-260.11 35.6,-390.33 -93.84,81.15 -186.07,164.22 -276.62,249.1 -182.56,171.16 -359.35,350.76 -529.86,538.25 -730.59,803.35 -1335.95,1743.47 -1781.21,2781.91 -402.93,939.74 -674.9,1960.39 -790.12,3033.48 11.24,-3.1 22.53,-6.05 33.89,-8.82 93.64,-22.92 190.27,-35.09 288.38,-35.09 116.22,0 229.86,16.95 338.48,48.53 36.56,10.64 72.43,22.95 107.5,36.87 114,-1022.55 385.02,-2021.5 805.32,-2950.9 430.6,-952.14 1018.09,-1832.5 1754.15,-2591.92 -6.17,-239.29 -1.11,-476.17 14.51,-711.09z"/>
   <path class="fil0" d="M14739.06 11915.68c98.43,156.69 188.05,297.03 263.78,413.71 516.93,796.49 1488.92,2264.24 2433.68,3066.39 159.27,-250.33 439.14,-416.41 757.81,-416.41 495.75,0 897.63,401.89 897.63,897.64 0,495.75 -401.88,897.63 -897.63,897.63 -495.75,0 -897.64,-401.88 -897.64,-897.63 0,-151.61 37.65,-294.41 104.01,-419.65 -1249.77,-450.91 -3199.83,-547.96 -4226.98,-588.98 -48.27,-1.93 -100.09,-3.88 -154.82,-5.81 72.43,-82.05 143.46,-165.64 213.01,-250.81 104.48,10.68 209.03,21.87 313.65,33.68 938.69,106 2679.77,298.54 3833.99,762.18 11.2,9.19 22.35,18.27 33.47,27.23 2.55,-4.5 5.15,-8.97 7.78,-13.43 -15.07,-5.81 -30.27,-11.6 -45.61,-17.35 -861.68,-709.14 -1928.19,-2063.26 -2746.16,-3181.73 38.7,-101.75 75.38,-203.98 110.04,-306.66z"/>
   <path class="fil0" d="M14882.43 9336.75c-153.43,-160.37 -314.01,-312.75 -479.65,-454.36 -97.33,-83.22 -196.98,-163.27 -298.51,-239.59 40.21,698.2 -9.74,1398 -155.18,2082.86 -162.13,763.53 -442.43,1508.08 -848.13,2210.77 -557.99,966.46 -1302.96,1766.74 -2173.98,2387.52 -903.3,643.75 -1941.17,1093.26 -3045.61,1333.76 -973.47,211.97 -1998.73,262.23 -3029.87,140.8 -932.08,-109.76 -1870.25,-360.3 -2780.6,-758.98 -5.48,37.32 -12.74,74.52 -21.81,111.49 -26.96,109.87 -69.11,216.76 -127.22,317.41 -49.05,84.95 -107.9,162.56 -174.57,232.19 -8.09,8.45 -16.29,16.76 -24.59,24.94 986.94,436.76 2006.82,711.55 3022.14,832.47 1121.93,133.62 2238.79,79.41 3299.81,-151.62 1211.26,-263.75 2349.23,-757.41 3339.25,-1464.72 952.44,-680.45 1768.53,-1559.1 2381.87,-2621.43 360.52,-624.43 630.83,-1276.56 815.16,-1943.35 184.61,-667.84 283.71,-1352.3 301.48,-2040.18z"/>
   <path class="fil0" d="M14402.35 7188.66c108.28,72.5 214.98,147.86 320.23,225.99 -23.37,-121.84 -49.19,-243.24 -77.42,-364.1 -56.95,-243.69 -124.1,-486.58 -201.21,-728.01 -330.42,-1034.38 -841.91,-2028.7 -1518.6,-2933.52 -612.37,-818.82 -1360.29,-1564.68 -2232,-2201.01 -2.93,11.29 -6.04,22.54 -9.31,33.76 -26.96,92.56 -64.75,182.33 -113.81,267.29 -58.11,100.65 -129.6,190.6 -211.27,268.87 -27.48,26.35 -56.09,51.25 -85.67,74.66 828.56,610 1558.17,1344.18 2152.9,2172.87 609.27,848.99 1077.95,1797.95 1367.59,2815.09 210.32,114.3 412.94,237.13 608.58,368.11z"/>
   <path class="fil0" d="M8208.89 16291.64c215.6,-52.69 427.85,-115.56 633.32,-188.21 120.74,-42.69 239.89,-88.95 356.75,-138.72 -624.76,-314.28 -1205.84,-707.43 -1726.23,-1175.82 -580.17,-522.17 -1084.82,-1137.19 -1490.52,-1839.89 -557.99,-966.46 -878.56,-2011.77 -980.66,-3076.49 -105.85,-1104.15 23.79,-2227.72 367.74,-3304.45 303.17,-949.03 772.27,-1862.06 1393,-2694.34 561.09,-752.33 1247.16,-1439.54 2047.59,-2028.58 -29.58,-23.41 -58.16,-48.29 -85.64,-74.63 -81.67,-78.29 -153.17,-168.23 -211.28,-268.89 -49.05,-84.95 -86.84,-174.72 -113.81,-267.28 -3.27,-11.23 -6.37,-22.48 -9.31,-33.77 -871.71,636.34 -1619.63,1382.19 -2232,2201.01 -676.68,904.81 -1188.17,1899.15 -1518.6,2933.53 -377.22,1180.86 -518.68,2413.2 -401.14,3624.23 113.07,1165.06 465.95,2311.14 1079.3,3373.48 360.51,624.43 790.11,1184.6 1275.41,1677.62 486.05,493.8 1029.26,921.84 1616.09,1281.18z"/>
   <path class="fil0" d="M10309.23 16949.93c-116.93,57.53 -235.53,112.25 -355.83,164.34 117.2,40.69 235.26,79.03 354.04,115 239.51,72.53 483.44,135.83 731.08,189.75 1061.01,231.03 2177.86,285.23 3299.81,151.61 1015.3,-120.92 2035.19,-395.71 3022.13,-832.47 -8.3,-8.18 -16.49,-16.49 -24.58,-24.93 -66.68,-69.63 -125.53,-147.24 -174.58,-232.2 -58.11,-100.65 -100.26,-207.55 -127.21,-317.39 -9.08,-36.99 -16.34,-74.2 -21.82,-111.53 -942.56,412.55 -1943.19,677.32 -2958.22,778.03 -1039.88,103.15 -2096.04,34.55 -3121.74,-223.17 -204.15,124.99 -411.82,239.04 -623.08,342.98z"/>
   <path class="fil0" d="M1671.16 15421.42c15.07,-5.81 30.27,-11.6 45.61,-17.35 -12.65,10.41 -25.26,20.69 -37.81,30.82 -2.56,-4.52 -5.16,-9.01 -7.8,-13.47z"/>
   <path class="fil0" d="M4352.9 11915.68c-98.43,156.69 -188.05,297.03 -263.78,413.71 -516.93,796.49 -1488.94,2264.23 -2433.69,3066.39 -159.28,-250.32 -439.13,-416.41 -757.8,-416.41 -495.75,0 -897.63,401.89 -897.63,897.64 0,495.75 401.88,897.63 897.63,897.63 495.75,0 897.64,-401.88 897.64,-897.63 0,-150.03 -36.86,-291.42 -101.93,-415.71 1167.08,-417.08 2924.14,-524.98 3872.36,-574.41 138.91,-7.24 305.26,-14.68 490.17,-21.58 -71.59,-81.35 -141.78,-164.24 -210.55,-248.63 -1377.62,149.15 -3083.58,395.72 -4128.54,787.39 861.68,-709.14 1928.19,-2063.26 2746.16,-3181.73 -38.7,-101.75 -75.38,-203.98 -110.04,-306.66z"/>
   <path class="fil0" d="M9545.98 0c-495.75,0 -897.63,401.88 -897.63,897.63 0,484.58 383.98,879.4 864.27,896.96 -234.34,1307.81 -1125.38,3045.23 -1603.46,3955.32 -22.46,42.77 -46.68,88.62 -72.38,136.99 107.27,-21.7 215.19,-41.42 323.72,-59.08 42.98,-95.83 85.57,-191.96 127.65,-288.46 377.55,-865.94 1081.34,-2470.02 1256.93,-3701.42 -2.37,-14.35 -4.67,-28.6 -6.87,-42.77 2.6,0.02 5.17,0.1 7.77,0.1 2.6,0 5.17,-0.08 7.77,-0.1 -2.21,14.17 -4.5,28.42 -6.87,42.77 175.59,1231.4 879.38,2835.48 1256.93,3701.42 42.08,96.51 84.67,192.64 127.65,288.46 108.53,17.66 216.45,37.37 323.72,59.08 -25.7,-48.37 -49.92,-94.22 -72.38,-136.99 -478.08,-910.09 -1369.12,-2647.51 -1603.46,-3955.32 480.28,-17.56 864.28,-412.38 864.28,-896.96 0,-495.75 -401.89,-897.63 -897.64,-897.63z"/>
   <g>
    <g>
     <path class="fil1 str0" d="M7061.02 9972.05c127.74,-189.86 262.83,-364.32 400.28,-520.1l1305.29 878.18c-92.51,186.02 -203.2,376.88 -330.94,566.74 -128.28,190.67 -263.98,365.81 -402.04,522.1l-1304.71 -877.8c92.74,-186.78 203.85,-378.48 332.13,-569.14z"/>
     <path class="fil2 str0" d="M6594.1 10778.82c-39.2,-26.38 -36.95,-98.36 5.03,-160.76 41.99,-62.4 107.81,-91.62 147.02,-65.24 104.24,70.13 1252.62,842.72 1252.6,842.74 39.21,26.38 36.96,98.36 -5.03,160.77 -41.98,62.4 -107.81,91.61 -147.01,65.23 -0.01,0.01 -1148.39,-772.62 -1252.61,-842.74z"/>
     <path class="fil3 str0" d="M6161.57 11210.08c0.11,-0.17 50.84,-17.22 67.16,-41.48 20.99,-31.21 69.8,-35.12 109.01,-8.73 2.44,1.64 8.67,6.99 9.22,6.18l1243.39 836.55 -0.01 0.01c39.21,26.38 53.97,73.06 32.99,104.27 -20.99,31.2 -0.87,88.81 -40.07,62.44l-1421.69 -959.24z"/>
     <path class="fil4 str0" d="M6036.79 11452.22c-43.38,-29.19 -44.5,-103.44 -2.52,-165.84 41.99,-62.4 111.19,-89.35 154.57,-60.16 115.32,77.59 1385.81,932.32 1385.79,932.34 43.38,29.19 44.5,103.44 2.51,165.84 -41.98,62.4 -111.19,89.35 -154.57,60.16 -0.01,0.02 -1270.47,-854.76 -1385.78,-932.34z"/>
     <polygon class="fil1 str0" points="7851.78,11623.8 7618.33,12021.41 6293.69,11130.22 6574.04,10764.15 "/>
     <path class="fil5 str0" d="M7634.87 9256.88c-39.21,-26.38 -105.03,2.83 -147.02,65.23 -41.98,62.4 -44.23,134.39 -5.03,160.76 104.23,70.13 1252.6,842.75 1252.61,842.75 39.2,26.38 105.03,-2.84 147.01,-65.24 41.99,-62.4 44.24,-134.38 5.03,-160.76 0.01,-0.01 -1148.39,-772.62 -1252.6,-842.74z"/>
     <path class="fil6 str0" d="M7871.36 8693.73c-0.11,0.16 3.2,53.57 -13.12,77.83 -20.99,31.21 -6.23,77.88 32.98,104.27 104.24,70.12 1252.6,842.74 1252.61,842.74 39.2,26.38 88.01,22.46 109,-8.73 20.99,-31.2 81.95,-34.26 42.75,-60.64l-1424.22 -955.46z"/>
     <path class="fil7 str0" d="M8048.64 8486.9c-43.38,-29.19 -112.59,-2.25 -154.57,60.16 -41.99,62.4 -40.87,136.65 2.51,165.84 115.32,77.59 1385.77,932.36 1385.79,932.34 43.38,29.19 112.59,2.25 154.57,-60.16 41.99,-62.4 40.86,-136.65 -2.52,-165.84 0.02,-0.02 -1270.47,-854.76 -1385.78,-932.34z"/>
     <polygon class="fil1 str0" points="8891.46,10103.47 9171.8,9737.4 7847.17,8846.2 7613.72,9243.82 "/>
     <path class="fil8 str0" d="M8419.42 10922.43c-37.5,55.75 -71.79,110.57 -102.24,162.94l189.79 127.68c37.03,-47.93 74.9,-100.35 112.4,-156.09 37.34,-55.5 71.5,-110.1 101.84,-162.27l-189.86 -127.74c-36.89,47.77 -74.59,99.97 -111.94,155.48z"/>
     <path class="fil9 str0" d="M8721.22 10894.69c53.16,-41.61 112.62,-36.73 142.45,-16.65 29.85,20.07 47.72,66.55 46.93,123.3 -46.79,102.46 -134.81,240.88 -212.34,323.11 -43.97,51.24 -109.81,34.88 -139.65,14.8 -29.84,-20.08 -67.15,-62.85 -51.65,-126.2 29.64,-39.09 188.81,-275.54 214.25,-318.36z"/>
     <path class="fil1 str0" d="M8820.35 11174.96c-37.42,55.63 -82.18,100.9 -122.07,149.49l1570.44 1189.85 1354.32 869.29c83.67,-16.55 189.21,-114.91 226.63,-170.53 37.43,-55.62 105.45,-219.46 89.55,-302.74l-1370.9 -943.09 -1657.7 -965.89c-59.64,110.28 -52.85,118 -90.27,173.62z"/>
     <path class="fil10 str0" d="M11622.91 13383.5l272.52 162c226.28,-62.51 321.88,-203.24 299.64,-445.29l-255.85 -189.89c40.33,95.02 -206.57,401.36 -316.31,473.18z"/>
    </g>
    <g>
     <path class="fil1 str0" d="M12312.56 9972.05c-127.74,-189.86 -262.83,-364.32 -400.28,-520.1l-1305.29 878.18c92.51,186.02 203.2,376.88 330.94,566.74 128.28,190.67 263.98,365.81 402.04,522.1l1304.71 -877.8c-92.74,-186.78 -203.85,-378.48 -332.13,-569.14z"/>
     <path class="fil11 str0" d="M12779.47 10778.82c39.2,-26.38 36.95,-98.36 -5.03,-160.76 -41.99,-62.4 -107.81,-91.62 -147.02,-65.24 -104.24,70.13 -1252.62,842.72 -1252.6,842.74 -39.21,26.38 -36.96,98.36 5.03,160.77 41.98,62.4 107.81,91.61 147.01,65.23 0.01,0.01 1148.39,-772.62 1252.61,-842.74z"/>
     <path class="fil12 str0" d="M13212.01 11210.08c-0.11,-0.17 -50.84,-17.22 -67.16,-41.48 -20.99,-31.21 -69.8,-35.12 -109.01,-8.73 -2.44,1.64 -8.67,6.99 -9.22,6.18l-1243.39 836.55 0.01 0.01c-39.21,26.38 -53.97,73.06 -32.99,104.27 20.99,31.2 0.87,88.81 40.07,62.44l1421.69 -959.24z"/>
     <path class="fil13 str0" d="M13336.78 11452.22c43.38,-29.19 44.5,-103.44 2.52,-165.84 -41.99,-62.4 -111.19,-89.35 -154.57,-60.16 -115.32,77.59 -1385.81,932.32 -1385.79,932.34 -43.38,29.19 -44.5,103.44 -2.51,165.84 41.98,62.4 111.19,89.35 154.57,60.16 0.01,0.02 1270.47,-854.76 1385.78,-932.34z"/>
     <polygon class="fil1 str0" points="11521.8,11623.8 11755.25,12021.41 13079.88,11130.22 12799.53,10764.15 "/>
     <path class="fil14 str0" d="M11738.71 9256.88c39.21,-26.38 105.03,2.83 147.02,65.23 41.98,62.4 44.23,134.39 5.03,160.76 -104.23,70.13 -1252.6,842.75 -1252.61,842.75 -39.2,26.38 -105.03,-2.84 -147.01,-65.24 -41.99,-62.4 -44.24,-134.38 -5.03,-160.76 -0.01,-0.01 1148.39,-772.62 1252.6,-842.74z"/>
     <path class="fil15 str0" d="M11502.21 8693.73c0.11,0.16 -3.2,53.57 13.12,77.83 20.99,31.21 6.23,77.88 -32.98,104.27 -104.24,70.12 -1252.6,842.74 -1252.61,842.74 -39.2,26.38 -88.01,22.46 -109,-8.73 -20.99,-31.2 -81.95,-34.26 -42.75,-60.64l1424.22 -955.46z"/>
     <path class="fil16 str0" d="M11324.94 8486.9c43.38,-29.19 112.59,-2.25 154.57,60.16 41.99,62.4 40.87,136.65 -2.51,165.84 -115.32,77.59 -1385.77,932.36 -1385.79,932.34 -43.38,29.19 -112.59,2.25 -154.57,-60.16 -41.99,-62.4 -40.86,-136.65 2.52,-165.84 -0.02,-0.02 1270.47,-854.76 1385.78,-932.34z"/>
     <polygon class="fil1 str0" points="10482.12,10103.47 10201.77,9737.4 11526.41,8846.2 11759.85,9243.82 "/>
     <path class="fil17 str0" d="M10954.16 10922.43c37.5,55.75 71.79,110.57 102.24,162.94l-189.79 127.68c-37.03,-47.93 -74.9,-100.35 -112.4,-156.09 -37.34,-55.5 -71.5,-110.1 -101.84,-162.27l189.86 -127.74c36.89,47.77 74.59,99.97 111.94,155.48z"/>
     <path class="fil18 str0" d="M10652.36 10894.69c-53.16,-41.61 -112.62,-36.73 -142.45,-16.65 -29.85,20.07 -47.72,66.55 -46.93,123.3 46.79,102.46 134.81,240.88 212.34,323.11 43.97,51.24 109.81,34.88 139.65,14.8 29.84,-20.08 67.15,-62.85 51.65,-126.2 -29.64,-39.09 -188.81,-275.54 -214.25,-318.36z"/>
     <path class="fil1 str0" d="M10553.23 11174.96c37.42,55.63 82.18,100.9 122.07,149.49l-1570.44 1189.85 -1354.32 869.29c-83.67,-16.55 -189.21,-114.91 -226.63,-170.53 -37.43,-55.62 -105.45,-219.46 -89.55,-302.74l1370.9 -943.09 1657.7 -965.89c59.64,110.28 52.85,118 90.27,173.62z"/>
     <path class="fil19 str0" d="M7750.67 13383.5l-272.52 162c-226.28,-62.51 -321.88,-203.24 -299.64,-445.29l255.85 -189.89c-40.33,95.02 206.57,401.36 316.31,473.18z"/>
    </g>
   </g>
  </g>
 </g>
</svg>
